<?xml version="1.0" encoding="iso-8859-1"?>
<!-- Uploaded to: SVG Repo, www.svgrepo.com, Generator: SVG Repo Mixer Tools -->
<svg fill="#000000" height="800px" width="800px" version="1.1" id="Layer_1" xmlns="http://www.w3.org/2000/svg" xmlns:xlink="http://www.w3.org/1999/xlink" 
	 viewBox="0 0 512 512" xml:space="preserve">
<path d="M495.304,416.417h-21.884c29.657-59.567,17.715-128.951-17.241-171.085c-18.945-24.698-28.21-55.464-26.092-86.694
	c3.444-50.807-36.181-96.447-89.67-96.447c-45.57,0-91.552,32.545-91.552,105.256c0,38.783,14.379,75.508,34.081,99.221
	c33.733,43.971,35.152,104.37,4.313,149.749h-40.966c29.928-60.11,17.307-129.503-17.235-171.078
	c-18.95-24.698-28.216-55.466-26.098-86.701c3.443-50.798-36.173-96.447-89.67-96.447c-45.57,0-91.552,32.545-91.552,105.256
	c0,36.119,11.661,70.275,33.722,98.773c0.116,0.149,0.233,0.296,0.353,0.441c33.739,43.97,35.161,104.373,4.321,149.757H16.696
	C7.475,416.417,0,423.893,0,433.113c0,9.22,7.475,16.696,16.696,16.696c53.218,0,424.146,0,478.609,0
	c9.22,0,16.696-7.475,16.696-16.696C512,423.893,504.525,416.417,495.304,416.417z M172.528,416.417
	c27.164-54.56,21.542-121.002-16.883-170.638c-0.114-0.146-0.228-0.289-0.345-0.431c-17.276-22.506-26.404-49.43-26.404-77.901
	c0-9.22-7.475-16.696-16.696-16.696s-16.696,7.475-16.696,16.696c0,36.12,11.661,70.275,33.723,98.773
	c0.114,0.146,0.228,0.29,0.346,0.433c33.745,43.972,35.169,104.379,4.325,149.764H98.77c27.16-54.56,21.532-121.005-16.892-170.638
	c-0.116-0.149-0.234-0.296-0.354-0.441c-17.271-22.505-26.395-49.424-26.395-77.891c0-52.985,30.044-71.865,58.161-71.865
	c32.811,0,58.593,27.795,56.355,60.798c-2.866,42.287,11.836,84.041,33.7,110.278c33.736,43.969,35.19,104.377,4.355,149.759
	H172.528z M399.655,416.417c29.506-59.262,17.871-129.207-17.23-171.069c-17.276-22.506-26.403-49.429-26.403-77.9
	c0-9.22-7.475-16.696-16.696-16.696c-9.22,0-16.696,7.475-16.696,16.696c0,38.547,14.109,74.995,34.068,99.204
	c33.745,43.973,35.17,104.38,4.326,149.766h-35.131c29.653-59.566,17.717-128.938-17.25-171.086
	c-17.267-22.504-26.389-49.42-26.389-77.884c0-52.985,30.044-71.865,58.161-71.865c32.806,0,58.595,27.786,56.356,60.798
	c-2.875,42.433,11.886,84.025,33.707,110.288c33.73,43.967,35.18,104.37,4.348,149.749h-35.172V416.417z"/>
</svg>