<svg viewBox="0 0 178 466" fill="none" xmlns="http://www.w3.org/2000/svg">
<g filter="url(#filter0_d_0_1)">
<rect x="4" width="169" height="458" rx="5" fill="#EE3C42"/>
</g>
<path d="M80.1034 275.625V277.95H72.7284V283.075H78.4784V285.4H72.7284V293H69.8784V275.625H80.1034ZM81.7946 286.05C81.7946 284.667 82.078 283.442 82.6446 282.375C83.228 281.308 84.0113 280.483 84.9946 279.9C85.9946 279.3 87.0946 279 88.2946 279C89.378 279 90.3196 279.217 91.1196 279.65C91.9363 280.067 92.5863 280.592 93.0696 281.225V279.225H95.9446V293H93.0696V290.95C92.5863 291.6 91.928 292.142 91.0946 292.575C90.2613 293.008 89.3113 293.225 88.2446 293.225C87.0613 293.225 85.978 292.925 84.9946 292.325C84.0113 291.708 83.228 290.858 82.6446 289.775C82.078 288.675 81.7946 287.433 81.7946 286.05ZM93.0696 286.1C93.0696 285.15 92.8696 284.325 92.4696 283.625C92.0863 282.925 91.578 282.392 90.9446 282.025C90.3113 281.658 89.628 281.475 88.8946 281.475C88.1613 281.475 87.478 281.658 86.8446 282.025C86.2113 282.375 85.6946 282.9 85.2946 283.6C84.9113 284.283 84.7196 285.1 84.7196 286.05C84.7196 287 84.9113 287.833 85.2946 288.55C85.6946 289.267 86.2113 289.817 86.8446 290.2C87.4946 290.567 88.178 290.75 88.8946 290.75C89.628 290.75 90.3113 290.567 90.9446 290.2C91.578 289.833 92.0863 289.3 92.4696 288.6C92.8696 287.883 93.0696 287.05 93.0696 286.1ZM101.138 277.4C100.621 277.4 100.188 277.225 99.838 276.875C99.488 276.525 99.313 276.092 99.313 275.575C99.313 275.058 99.488 274.625 99.838 274.275C100.188 273.925 100.621 273.75 101.138 273.75C101.638 273.75 102.063 273.925 102.413 274.275C102.763 274.625 102.938 275.058 102.938 275.575C102.938 276.092 102.763 276.525 102.413 276.875C102.063 277.225 101.638 277.4 101.138 277.4ZM102.538 279.225V293H99.688V279.225H102.538ZM109.13 274.5V293H106.28V274.5H109.13Z" fill="#1C1C1C"/>
<path d="M141 165.474L130.526 155L89 196.526L47.4743 155L37 165.474L78.5257 207L37 248.526L47.4743 259L89 217.474L130.526 259L141 248.526L99.4743 207L141 165.474Z" fill="#1C1C1C"/>
<defs>
<filter id="filter0_d_0_1" x="0" y="0" width="177" height="466" filterUnits="userSpaceOnUse" color-interpolation-filters="sRGB">
<feFlood flood-opacity="0" result="BackgroundImageFix"/>
<feColorMatrix in="SourceAlpha" type="matrix" values="0 0 0 0 0 0 0 0 0 0 0 0 0 0 0 0 0 0 127 0" result="hardAlpha"/>
<feOffset dy="4"/>
<feGaussianBlur stdDeviation="2"/>
<feComposite in2="hardAlpha" operator="out"/>
<feColorMatrix type="matrix" values="0 0 0 0 0 0 0 0 0 0 0 0 0 0 0 0 0 0 0.25 0"/>
<feBlend mode="normal" in2="BackgroundImageFix" result="effect1_dropShadow_0_1"/>
<feBlend mode="normal" in="SourceGraphic" in2="effect1_dropShadow_0_1" result="shape"/>
</filter>
</defs>
</svg>
