<svg viewBox="0 0 178 466" fill="none" xmlns="http://www.w3.org/2000/svg">
<g filter="url(#filter0_d_0_1)">
<rect x="4" width="170" height="458" rx="5" fill="#00D586"/>
</g>
<path d="M39.8788 286.175C38.7121 286.175 37.6621 285.975 36.7288 285.575C35.7955 285.158 35.0621 284.575 34.5288 283.825C33.9955 283.075 33.7288 282.2 33.7288 281.2H36.7788C36.8455 281.95 37.1371 282.567 37.6538 283.05C38.1871 283.533 38.9288 283.775 39.8788 283.775C40.8621 283.775 41.6288 283.542 42.1788 283.075C42.7288 282.592 43.0038 281.975 43.0038 281.225C43.0038 280.642 42.8288 280.167 42.4788 279.8C42.1455 279.433 41.7205 279.15 41.2038 278.95C40.7038 278.75 40.0038 278.533 39.1038 278.3C37.9705 278 37.0455 277.7 36.3288 277.4C35.6288 277.083 35.0288 276.6 34.5288 275.95C34.0288 275.3 33.7788 274.433 33.7788 273.35C33.7788 272.35 34.0288 271.475 34.5288 270.725C35.0288 269.975 35.7288 269.4 36.6288 269C37.5288 268.6 38.5705 268.4 39.7538 268.4C41.4371 268.4 42.8121 268.825 43.8788 269.675C44.9621 270.508 45.5621 271.658 45.6788 273.125H42.5288C42.4788 272.492 42.1788 271.95 41.6288 271.5C41.0788 271.05 40.3538 270.825 39.4538 270.825C38.6371 270.825 37.9705 271.033 37.4538 271.45C36.9371 271.867 36.6788 272.467 36.6788 273.25C36.6788 273.783 36.8371 274.225 37.1538 274.575C37.4871 274.908 37.9038 275.175 38.4038 275.375C38.9038 275.575 39.5871 275.792 40.4538 276.025C41.6038 276.342 42.5371 276.658 43.2538 276.975C43.9871 277.292 44.6038 277.783 45.1038 278.45C45.6205 279.1 45.8788 279.975 45.8788 281.075C45.8788 281.958 45.6371 282.792 45.1538 283.575C44.6871 284.358 43.9955 284.992 43.0788 285.475C42.1788 285.942 41.1121 286.175 39.8788 286.175ZM61.7167 272.225V286H58.8667V284.375C58.4167 284.942 57.825 285.392 57.0917 285.725C56.375 286.042 55.6084 286.2 54.7917 286.2C53.7084 286.2 52.7334 285.975 51.8667 285.525C51.0167 285.075 50.3417 284.408 49.8417 283.525C49.3584 282.642 49.1167 281.575 49.1167 280.325V272.225H51.9417V279.9C51.9417 281.133 52.25 282.083 52.8667 282.75C53.4834 283.4 54.325 283.725 55.3917 283.725C56.4584 283.725 57.3 283.4 57.9167 282.75C58.55 282.083 58.8667 281.133 58.8667 279.9V272.225H61.7167ZM64.5271 279.1C64.5271 277.683 64.8104 276.442 65.3771 275.375C65.9604 274.292 66.7604 273.458 67.7771 272.875C68.7937 272.292 69.9604 272 71.2771 272C72.9437 272 74.3187 272.4 75.4021 273.2C76.5021 273.983 77.2437 275.108 77.6271 276.575H74.5521C74.3021 275.892 73.9021 275.358 73.3521 274.975C72.8021 274.592 72.1104 274.4 71.2771 274.4C70.1104 274.4 69.1771 274.817 68.4771 275.65C67.7937 276.467 67.4521 277.617 67.4521 279.1C67.4521 280.583 67.7937 281.742 68.4771 282.575C69.1771 283.408 70.1104 283.825 71.2771 283.825C72.9271 283.825 74.0187 283.1 74.5521 281.65H77.6271C77.2271 283.05 76.4771 284.167 75.3771 285C74.2771 285.817 72.9104 286.225 71.2771 286.225C69.9604 286.225 68.7937 285.933 67.7771 285.35C66.7604 284.75 65.9604 283.917 65.3771 282.85C64.8104 281.767 64.5271 280.517 64.5271 279.1ZM79.5173 279.1C79.5173 277.683 79.8006 276.442 80.3673 275.375C80.9506 274.292 81.7506 273.458 82.7673 272.875C83.784 272.292 84.9506 272 86.2673 272C87.934 272 89.309 272.4 90.3923 273.2C91.4923 273.983 92.234 275.108 92.6173 276.575H89.5423C89.2923 275.892 88.8923 275.358 88.3423 274.975C87.7923 274.592 87.1006 274.4 86.2673 274.4C85.1006 274.4 84.1673 274.817 83.4673 275.65C82.784 276.467 82.4423 277.617 82.4423 279.1C82.4423 280.583 82.784 281.742 83.4673 282.575C84.1673 283.408 85.1006 283.825 86.2673 283.825C87.9173 283.825 89.009 283.1 89.5423 281.65H92.6173C92.2173 283.05 91.4673 284.167 90.3673 285C89.2673 285.817 87.9006 286.225 86.2673 286.225C84.9506 286.225 83.784 285.933 82.7673 285.35C81.7506 284.75 80.9506 283.917 80.3673 282.85C79.8006 281.767 79.5173 280.517 79.5173 279.1ZM108.083 278.775C108.083 279.292 108.049 279.758 107.983 280.175H97.4575C97.5409 281.275 97.9492 282.158 98.6825 282.825C99.4159 283.492 100.316 283.825 101.383 283.825C102.916 283.825 103.999 283.183 104.633 281.9H107.708C107.291 283.167 106.533 284.208 105.433 285.025C104.349 285.825 102.999 286.225 101.383 286.225C100.066 286.225 98.8825 285.933 97.8325 285.35C96.7992 284.75 95.9825 283.917 95.3825 282.85C94.7992 281.767 94.5075 280.517 94.5075 279.1C94.5075 277.683 94.7909 276.442 95.3575 275.375C95.9409 274.292 96.7492 273.458 97.7825 272.875C98.8325 272.292 100.033 272 101.383 272C102.683 272 103.841 272.283 104.858 272.85C105.874 273.417 106.666 274.217 107.233 275.25C107.799 276.267 108.083 277.442 108.083 278.775ZM105.108 277.875C105.091 276.825 104.716 275.983 103.983 275.35C103.249 274.717 102.341 274.4 101.258 274.4C100.274 274.4 99.4325 274.717 98.7325 275.35C98.0325 275.967 97.6159 276.808 97.4825 277.875H105.108ZM115.887 286.225C114.804 286.225 113.829 286.033 112.962 285.65C112.112 285.25 111.437 284.717 110.937 284.05C110.437 283.367 110.171 282.608 110.137 281.775H113.087C113.137 282.358 113.412 282.85 113.912 283.25C114.429 283.633 115.071 283.825 115.837 283.825C116.637 283.825 117.254 283.675 117.687 283.375C118.137 283.058 118.362 282.658 118.362 282.175C118.362 281.658 118.112 281.275 117.612 281.025C117.129 280.775 116.354 280.5 115.287 280.2C114.254 279.917 113.412 279.642 112.762 279.375C112.112 279.108 111.546 278.7 111.062 278.15C110.596 277.6 110.362 276.875 110.362 275.975C110.362 275.242 110.579 274.575 111.012 273.975C111.446 273.358 112.062 272.875 112.862 272.525C113.679 272.175 114.612 272 115.662 272C117.229 272 118.487 272.4 119.437 273.2C120.404 273.983 120.921 275.058 120.987 276.425H118.137C118.087 275.808 117.837 275.317 117.387 274.95C116.937 274.583 116.329 274.4 115.562 274.4C114.812 274.4 114.237 274.542 113.837 274.825C113.437 275.108 113.237 275.483 113.237 275.95C113.237 276.317 113.371 276.625 113.637 276.875C113.904 277.125 114.229 277.325 114.612 277.475C114.996 277.608 115.562 277.783 116.312 278C117.312 278.267 118.129 278.542 118.762 278.825C119.412 279.092 119.971 279.492 120.437 280.025C120.904 280.558 121.146 281.267 121.162 282.15C121.162 282.933 120.946 283.633 120.512 284.25C120.079 284.867 119.462 285.35 118.662 285.7C117.879 286.05 116.954 286.225 115.887 286.225ZM129.242 286.225C128.158 286.225 127.183 286.033 126.317 285.65C125.467 285.25 124.792 284.717 124.292 284.05C123.792 283.367 123.525 282.608 123.492 281.775H126.442C126.492 282.358 126.767 282.85 127.267 283.25C127.783 283.633 128.425 283.825 129.192 283.825C129.992 283.825 130.608 283.675 131.042 283.375C131.492 283.058 131.717 282.658 131.717 282.175C131.717 281.658 131.467 281.275 130.967 281.025C130.483 280.775 129.708 280.5 128.642 280.2C127.608 279.917 126.767 279.642 126.117 279.375C125.467 279.108 124.9 278.7 124.417 278.15C123.95 277.6 123.717 276.875 123.717 275.975C123.717 275.242 123.933 274.575 124.367 273.975C124.8 273.358 125.417 272.875 126.217 272.525C127.033 272.175 127.967 272 129.017 272C130.583 272 131.842 272.4 132.792 273.2C133.758 273.983 134.275 275.058 134.342 276.425H131.492C131.442 275.808 131.192 275.317 130.742 274.95C130.292 274.583 129.683 274.4 128.917 274.4C128.167 274.4 127.592 274.542 127.192 274.825C126.792 275.108 126.592 275.483 126.592 275.95C126.592 276.317 126.725 276.625 126.992 276.875C127.258 277.125 127.583 277.325 127.967 277.475C128.35 277.608 128.917 277.783 129.667 278C130.667 278.267 131.483 278.542 132.117 278.825C132.767 279.092 133.325 279.492 133.792 280.025C134.258 280.558 134.5 281.267 134.517 282.15C134.517 282.933 134.3 283.633 133.867 284.25C133.433 284.867 132.817 285.35 132.017 285.7C131.233 286.05 130.308 286.225 129.242 286.225Z" fill="#1C1C1C"/>
<path d="M63.8556 226.007L31.1404 198.02L20 207.483L63.8556 245L158 164.463L146.938 155L63.8556 226.007Z" fill="#1C1C1C"/>
<defs>
<filter id="filter0_d_0_1" x="0" y="0" width="178" height="466" filterUnits="userSpaceOnUse" color-interpolation-filters="sRGB">
<feFlood flood-opacity="0" result="BackgroundImageFix"/>
<feColorMatrix in="SourceAlpha" type="matrix" values="0 0 0 0 0 0 0 0 0 0 0 0 0 0 0 0 0 0 127 0" result="hardAlpha"/>
<feOffset dy="4"/>
<feGaussianBlur stdDeviation="2"/>
<feComposite in2="hardAlpha" operator="out"/>
<feColorMatrix type="matrix" values="0 0 0 0 0 0 0 0 0 0 0 0 0 0 0 0 0 0 0.25 0"/>
<feBlend mode="normal" in2="BackgroundImageFix" result="effect1_dropShadow_0_1"/>
<feBlend mode="normal" in="SourceGraphic" in2="effect1_dropShadow_0_1" result="shape"/>
</filter>
</defs>
</svg>
